# xmcd CD database file
#
# Track frame offsets:
#	150
#	29824
#	55621
#	89475
#	115893
#	140884
#	176480
#	202079
#	233470
#	259667
#
# Disc length: 3782 seconds
#
# Revision: 0
# Processed by: cddbd v1.5.2PL0 Copyright (c) Steve Scherf et al.
# Submitted via: CDex 1.81
#
DISCID=8e0ec40a
DTITLE=Various Artist - Twelve Inch Eighties - Hold Me Now [CD3)
DYEAR=2017
DGENRE=80's
TTITLE0=Munchener Freiheit - Keeping The Dream Alive (Solang' Man Traume Noch Leben Kann)(Extented Version)
TTITLE1=Mr. Mister - Broken Wings (12" Version)
TTITLE2=Belinda Carlisle - I Get Weak (12 Version)
TTITLE3=Bangles - If She Knew What She Wants (Extended Remix)
TTITLE4=Daryl Hall and John Oates - One On One (12" Version)
TTITLE5=Cyndi Lauper and The Bangles - Change Of Heart (12" Extended Club Remix)
TTITLE6=Alexander O'neal and Cherelle - Never Knew Love Like This (Extented)
TTITLE7=S.O.S. Band - Tell Me If You Still Care (12" Version)
TTITLE8=Joyce Sims - (You Are My) All And All (Take Twenty Three)
TTITLE9=Jennifer Rush - Ring Of Ice (Extended Uk Remix)
EXTD=YEAR: 2017
EXTT0=
EXTT1=
EXTT2=
EXTT3=
EXTT4=
EXTT5=
EXTT6=
EXTT7=
EXTT8=
EXTT9=
PLAYORDER=
